<svg width="203" height="267" viewBox="0 0 203 267" fill="none" xmlns="http://www.w3.org/2000/svg">
<path d="M0 158.5C0 136.132 18.1325 118 40.5 118V118C62.8675 118 81 136.132 81 158.5V226.5C81 248.868 62.8675 267 40.5 267V267C18.1325 267 0 248.868 0 226.5V158.5Z" fill="white"/>
<path d="M0 182.997L0.279249 150.998C0.515406 123.937 22.6441 102.191 49.705 102.428L194.759 103.693L194.48 135.692C194.244 162.753 172.115 184.499 145.054 184.263L0 182.997Z" fill="white"/>
<path d="M8 80.9969L8.27925 48.9981C8.51541 21.9372 30.6441 0.191443 57.705 0.4276L162.261 1.34004C184.627 1.53523 202.601 19.8252 202.406 42.1919V42.1919C202.211 64.5586 183.921 82.5321 161.554 82.337L8 80.9969Z" fill="white"/>
</svg>
